<svg id="visual" viewBox="0 0 900 600" width="900" height="600" xmlns="http://www.w3.org/2000/svg" xmlns:xlink="http://www.w3.org/1999/xlink" version="1.1"><path d="M0 448L11.5 436.5C23 425 46 402 69 395C92 388 115 397 138.2 397.3C161.3 397.7 184.7 389.3 207.8 391.2C231 393 254 405 277 406.7C300 408.3 323 399.7 346 402.2C369 404.7 392 418.3 415.2 416.5C438.3 414.7 461.7 397.3 484.8 389.5C508 381.7 531 383.3 554 382.5C577 381.7 600 378.3 623 382.2C646 386 669 397 692.2 404.8C715.3 412.7 738.7 417.3 761.8 415.7C785 414 808 406 831 401C854 396 877 394 888.5 393L900 392L900 601L888.5 601C877 601 854 601 831 601C808 601 785 601 761.8 601C738.7 601 715.3 601 692.2 601C669 601 646 601 623 601C600 601 577 601 554 601C531 601 508 601 484.8 601C461.7 601 438.3 601 415.2 601C392 601 369 601 346 601C323 601 300 601 277 601C254 601 231 601 207.8 601C184.7 601 161.3 601 138.2 601C115 601 92 601 69 601C46 601 23 601 11.5 601L0 601Z" fill="#1495f0"></path><path d="M0 451L11.5 450.8C23 450.7 46 450.3 69 456.8C92 463.3 115 476.7 138.2 471.7C161.3 466.7 184.7 443.3 207.8 432.8C231 422.3 254 424.7 277 427.7C300 430.7 323 434.3 346 432.7C369 431 392 424 415.2 423.3C438.3 422.7 461.7 428.3 484.8 438.2C508 448 531 462 554 460C577 458 600 440 623 438.2C646 436.3 669 450.7 692.2 460C715.3 469.3 738.7 473.7 761.8 470.7C785 467.7 808 457.3 831 457.3C854 457.3 877 467.7 888.5 472.8L900 478L900 601L888.5 601C877 601 854 601 831 601C808 601 785 601 761.8 601C738.7 601 715.3 601 692.2 601C669 601 646 601 623 601C600 601 577 601 554 601C531 601 508 601 484.8 601C461.7 601 438.3 601 415.2 601C392 601 369 601 346 601C323 601 300 601 277 601C254 601 231 601 207.8 601C184.7 601 161.3 601 138.2 601C115 601 92 601 69 601C46 601 23 601 11.5 601L0 601Z" fill="#6c7cec"></path><path d="M0 523L11.5 521.2C23 519.3 46 515.7 69 509C92 502.3 115 492.7 138.2 494.2C161.3 495.7 184.7 508.3 207.8 515.7C231 523 254 525 277 516.5C300 508 323 489 346 480.7C369 472.3 392 474.7 415.2 476.3C438.3 478 461.7 479 484.8 482.2C508 485.3 531 490.7 554 498.2C577 505.7 600 515.3 623 514.8C646 514.3 669 503.7 692.2 497.7C715.3 491.7 738.7 490.3 761.8 487.8C785 485.3 808 481.7 831 482.2C854 482.7 877 487.3 888.5 489.7L900 492L900 601L888.5 601C877 601 854 601 831 601C808 601 785 601 761.8 601C738.7 601 715.3 601 692.2 601C669 601 646 601 623 601C600 601 577 601 554 601C531 601 508 601 484.8 601C461.7 601 438.3 601 415.2 601C392 601 369 601 346 601C323 601 300 601 277 601C254 601 231 601 207.8 601C184.7 601 161.3 601 138.2 601C115 601 92 601 69 601C46 601 23 601 11.5 601L0 601Z" fill="#a658d4"></path><path d="M0 522L11.5 525.7C23 529.3 46 536.7 69 539.2C92 541.7 115 539.3 138.2 538.8C161.3 538.3 184.7 539.7 207.8 543.7C231 547.7 254 554.3 277 553C300 551.7 323 542.3 346 541.8C369 541.3 392 549.7 415.2 550.7C438.3 551.7 461.7 545.3 484.8 540.3C508 535.3 531 531.7 554 535.2C577 538.7 600 549.3 623 554.2C646 559 669 558 692.2 556.7C715.3 555.3 738.7 553.7 761.8 546.7C785 539.7 808 527.3 831 524.3C854 521.3 877 527.7 888.5 530.8L900 534L900 601L888.5 601C877 601 854 601 831 601C808 601 785 601 761.8 601C738.7 601 715.3 601 692.2 601C669 601 646 601 623 601C600 601 577 601 554 601C531 601 508 601 484.8 601C461.7 601 438.3 601 415.2 601C392 601 369 601 346 601C323 601 300 601 277 601C254 601 231 601 207.8 601C184.7 601 161.3 601 138.2 601C115 601 92 601 69 601C46 601 23 601 11.5 601L0 601Z" fill="#d012a6"></path></svg>