<svg id="visual" viewBox="0 0 900 600" width="900" height="600" xmlns="http://www.w3.org/2000/svg" xmlns:xlink="http://www.w3.org/1999/xlink" version="1.1"><path d="M0 150L11.5 161.5C23 173 46 196 69 203C92 210 115 201 138.2 200.7C161.3 200.3 184.7 208.7 207.8 206.8C231 205 254 193 277 191.3C300 189.7 323 198.3 346 195.8C369 193.3 392 179.7 415.2 181.5C438.3 183.3 461.7 200.7 484.8 208.5C508 216.3 531 214.7 554 215.5C577 216.3 600 219.7 623 215.8C646 212 669 201 692.2 193.2C715.3 185.3 738.7 180.7 761.8 182.3C785 184 808 192 831 197C854 202 877 204 888.5 205L900 206L900 0L888.5 0C877 0 854 0 831 0C808 0 785 0 761.8 0C738.7 0 715.3 0 692.2 0C669 0 646 0 623 0C600 0 577 0 554 0C531 0 508 0 484.8 0C461.7 0 438.3 0 415.2 0C392 0 369 0 346 0C323 0 300 0 277 0C254 0 231 0 207.8 0C184.7 0 161.3 0 138.2 0C115 0 92 0 69 0C46 0 23 0 11.5 0L0 0Z" fill="#d27adf"></path><path d="M0 147L11.5 147.2C23 147.3 46 147.7 69 141.2C92 134.7 115 121.3 138.2 126.3C161.3 131.3 184.7 154.7 207.8 165.2C231 175.7 254 173.3 277 170.3C300 167.3 323 163.7 346 165.3C369 167 392 174 415.2 174.7C438.3 175.3 461.7 169.7 484.8 159.8C508 150 531 136 554 138C577 140 600 158 623 159.8C646 161.7 669 147.3 692.2 138C715.3 128.7 738.7 124.3 761.8 127.3C785 130.3 808 140.7 831 140.7C854 140.7 877 130.3 888.5 125.2L900 120L900 0L888.5 0C877 0 854 0 831 0C808 0 785 0 761.8 0C738.7 0 715.3 0 692.2 0C669 0 646 0 623 0C600 0 577 0 554 0C531 0 508 0 484.8 0C461.7 0 438.3 0 415.2 0C392 0 369 0 346 0C323 0 300 0 277 0C254 0 231 0 207.8 0C184.7 0 161.3 0 138.2 0C115 0 92 0 69 0C46 0 23 0 11.5 0L0 0Z" fill="#d161ce"></path><path d="M0 75L11.5 76.8C23 78.7 46 82.3 69 89C92 95.7 115 105.3 138.2 103.8C161.3 102.3 184.7 89.7 207.8 82.3C231 75 254 73 277 81.5C300 90 323 109 346 117.3C369 125.7 392 123.3 415.2 121.7C438.3 120 461.7 119 484.8 115.8C508 112.7 531 107.3 554 99.8C577 92.3 600 82.7 623 83.2C646 83.7 669 94.3 692.2 100.3C715.3 106.3 738.7 107.7 761.8 110.2C785 112.7 808 116.3 831 115.8C854 115.3 877 110.7 888.5 108.3L900 106L900 0L888.5 0C877 0 854 0 831 0C808 0 785 0 761.8 0C738.7 0 715.3 0 692.2 0C669 0 646 0 623 0C600 0 577 0 554 0C531 0 508 0 484.8 0C461.7 0 438.3 0 415.2 0C392 0 369 0 346 0C323 0 300 0 277 0C254 0 231 0 207.8 0C184.7 0 161.3 0 138.2 0C115 0 92 0 69 0C46 0 23 0 11.5 0L0 0Z" fill="#d143bb"></path><path d="M0 76L11.5 72.3C23 68.7 46 61.3 69 58.8C92 56.3 115 58.7 138.2 59.2C161.3 59.7 184.7 58.3 207.8 54.3C231 50.3 254 43.7 277 45C300 46.3 323 55.7 346 56.2C369 56.7 392 48.3 415.2 47.3C438.3 46.3 461.7 52.7 484.8 57.7C508 62.7 531 66.3 554 62.8C577 59.3 600 48.7 623 43.8C646 39 669 40 692.2 41.3C715.3 42.7 738.7 44.3 761.8 51.3C785 58.3 808 70.7 831 73.7C854 76.7 877 70.3 888.5 67.2L900 64L900 0L888.5 0C877 0 854 0 831 0C808 0 785 0 761.8 0C738.7 0 715.3 0 692.2 0C669 0 646 0 623 0C600 0 577 0 554 0C531 0 508 0 484.8 0C461.7 0 438.3 0 415.2 0C392 0 369 0 346 0C323 0 300 0 277 0C254 0 231 0 207.8 0C184.7 0 161.3 0 138.2 0C115 0 92 0 69 0C46 0 23 0 11.5 0L0 0Z" fill="#d012a6"></path></svg>